<svg width="18" height="18" viewBox="0 0 18 18" fill="none" xmlns="http://www.w3.org/2000/svg">
<path d="M16.3125 1.125H1.6875C0.755859 1.125 0 1.88086 0 2.8125V15.1875C0 16.1191 0.755859 16.875 1.6875 16.875H16.3125C17.2441 16.875 18 16.1191 18 15.1875V2.8125C18 1.88086 17.2441 1.125 16.3125 1.125ZM13.3734 11.3379C13.5422 11.5066 13.5422 11.7809 13.3734 11.9496L11.9496 13.3734C11.7809 13.5422 11.5066 13.5422 11.3379 13.3734L9 11.0145L6.66211 13.3734C6.49336 13.5422 6.21914 13.5422 6.05039 13.3734L4.62656 11.9496C4.45781 11.7809 4.45781 11.5066 4.62656 11.3379L6.98555 9L4.62656 6.66211C4.45781 6.49336 4.45781 6.21914 4.62656 6.05039L6.05039 4.62656C6.21914 4.45781 6.49336 4.45781 6.66211 4.62656L9 6.98555L11.3379 4.62656C11.5066 4.45781 11.7809 4.45781 11.9496 4.62656L13.3734 6.05039C13.5422 6.21914 13.5422 6.49336 13.3734 6.66211L11.0145 9L13.3734 11.3379Z" fill="black"/>
</svg>
