<svg width="25" height="25" viewBox="0 0 25 25" fill="none" xmlns="http://www.w3.org/2000/svg">
<g clip-path="url(#clip0_657:37)">
<path d="M1.5625 23.6562C1.5625 24.9502 2.6123 26 3.90625 26H21.0938C22.3877 26 23.4375 24.9502 23.4375 23.6562V10.375H1.5625V23.6562ZM17.1875 14.0859C17.1875 13.7637 17.4512 13.5 17.7734 13.5H19.7266C20.0488 13.5 20.3125 13.7637 20.3125 14.0859V16.0391C20.3125 16.3613 20.0488 16.625 19.7266 16.625H17.7734C17.4512 16.625 17.1875 16.3613 17.1875 16.0391V14.0859ZM17.1875 20.3359C17.1875 20.0137 17.4512 19.75 17.7734 19.75H19.7266C20.0488 19.75 20.3125 20.0137 20.3125 20.3359V22.2891C20.3125 22.6113 20.0488 22.875 19.7266 22.875H17.7734C17.4512 22.875 17.1875 22.6113 17.1875 22.2891V20.3359ZM10.9375 14.0859C10.9375 13.7637 11.2012 13.5 11.5234 13.5H13.4766C13.7988 13.5 14.0625 13.7637 14.0625 14.0859V16.0391C14.0625 16.3613 13.7988 16.625 13.4766 16.625H11.5234C11.2012 16.625 10.9375 16.3613 10.9375 16.0391V14.0859ZM10.9375 20.3359C10.9375 20.0137 11.2012 19.75 11.5234 19.75H13.4766C13.7988 19.75 14.0625 20.0137 14.0625 20.3359V22.2891C14.0625 22.6113 13.7988 22.875 13.4766 22.875H11.5234C11.2012 22.875 10.9375 22.6113 10.9375 22.2891V20.3359ZM4.6875 14.0859C4.6875 13.7637 4.95117 13.5 5.27344 13.5H7.22656C7.54883 13.5 7.8125 13.7637 7.8125 14.0859V16.0391C7.8125 16.3613 7.54883 16.625 7.22656 16.625H5.27344C4.95117 16.625 4.6875 16.3613 4.6875 16.0391V14.0859ZM4.6875 20.3359C4.6875 20.0137 4.95117 19.75 5.27344 19.75H7.22656C7.54883 19.75 7.8125 20.0137 7.8125 20.3359V22.2891C7.8125 22.6113 7.54883 22.875 7.22656 22.875H5.27344C4.95117 22.875 4.6875 22.6113 4.6875 22.2891V20.3359ZM21.0938 4.125H18.75V1.78125C18.75 1.35156 18.3984 1 17.9688 1H16.4062C15.9766 1 15.625 1.35156 15.625 1.78125V4.125H9.375V1.78125C9.375 1.35156 9.02344 1 8.59375 1H7.03125C6.60156 1 6.25 1.35156 6.25 1.78125V4.125H3.90625C2.6123 4.125 1.5625 5.1748 1.5625 6.46875V8.8125H23.4375V6.46875C23.4375 5.1748 22.3877 4.125 21.0938 4.125Z" fill="black"/>
</g>
<defs>
<clipPath id="clip0_657:37">
<rect width="25" height="25" fill="white"/>
</clipPath>
</defs>
</svg>
